HIERARCHY
ROOT hip
{
	OFFSET 0.000000 0.000000 0.000000 
	CHANNELS 6 Xposition Yposition Zposition Xrotation Zrotation Yrotation
	JOINT abdomen
	{
		OFFSET 0.000000 3.402643 0.000000 
		CHANNELS 3 Xrotation Zrotation Yrotation
		JOINT chest
		{
			OFFSET 0.000000 8.438565 -0.680529 
			CHANNELS 3 Xrotation Zrotation Yrotation
			JOINT neck
			{
				OFFSET 0.000000 10.207942 -0.272212 
				CHANNELS 3 Xrotation Zrotation Yrotation
				JOINT head
				{
					OFFSET 0.000000 3.130431 0.000000 
					CHANNELS 3 Xrotation Zrotation Yrotation
					End Site
					{
						OFFSET 0.000000 3.130435 0.000000 
					}
				}
			}
			JOINT lCollar
			{
				OFFSET 3.470700 6.669187 -0.816635 
				CHANNELS 3 Yrotation Zrotation Xrotation
				JOINT lShldr
				{
					OFFSET 3.198488 0.000000 0.000000 
					CHANNELS 3 Zrotation Yrotation Xrotation
					JOINT lForeArm
					{
						OFFSET 10.139888 0.000000 0.000000 
						CHANNELS 3 Yrotation Zrotation Xrotation
						JOINT lHand
						{
							OFFSET 8.370511 0.000000 0.000000 
							CHANNELS 3 Zrotation Yrotation Xrotation
							End Site
							{
								OFFSET 4.083176 0.000000 0.000000 
							}
						}
					}
				}
			}
			JOINT rCollar
			{
				OFFSET -3.470700 6.669187 -0.816635 
				CHANNELS 3 Yrotation Zrotation Xrotation
				JOINT rShldr
				{
					OFFSET -3.198488 0.000000 0.000000 
					CHANNELS 3 Zrotation Yrotation Xrotation
					JOINT rForeArm
					{
						OFFSET -10.139888 0.000000 0.000000 
						CHANNELS 3 Yrotation Zrotation Xrotation
						JOINT rHand
						{
							OFFSET -8.370511 0.000000 0.000000 
							CHANNELS 3 Zrotation Yrotation Xrotation
							End Site
							{
								OFFSET -4.083176 0.000000 0.000000 
							}
						}
					}
				}
			}
		}
	}
	JOINT lThigh
	{
		OFFSET 5.308129 -1.633274 1.361059 
		CHANNELS 3 Xrotation Zrotation Yrotation
		JOINT lShin
		{
			OFFSET -2.041588 -20.007561 0.000000 
			CHANNELS 3 Xrotation Zrotation Yrotation
			JOINT lFoot
			{
				OFFSET 0.000000 -19.190928 -1.224953 
				CHANNELS 3 Xrotation Yrotation Zrotation
				End Site
				{
					OFFSET 0.000000 -2.449906 4.627600 
				}
			}
		}
	}
	JOINT rThigh
	{
		OFFSET -5.308129 -1.633274 1.361059 
		CHANNELS 3 Xrotation Zrotation Yrotation
		JOINT rShin
		{
			OFFSET 2.041588 -20.007561 0.000000 
			CHANNELS 3 Xrotation Zrotation Yrotation
			JOINT rFoot
			{
				OFFSET 0.000000 -19.190928 -1.224953 
				CHANNELS 3 Xrotation Yrotation Zrotation
				End Site
				{
					OFFSET 0.000000 -2.449906 4.627600 
				}
			}
		}
	}
}
MOTION
Frames: 10
Frame Time: 0.011111
-31.473242 81.231506 -27.421986 -80.145988 87.831619 7.766334 61.079376 -2.492811 1.583369 -19.356985 -0.901657 2.031897 9.710759 -2.165317 -9.229465 12.684953 3.978615 -16.472404 2.971642 -4.490881 1.927035 -49.893272 -111.952301 34.405704 -41.882259 5.394887 5.058304 8.524705 12.647240 -67.317757 -4.704987 0.510038 2.448925 1.445814 91.996162 -17.650112 82.012581 -5.391312 23.813221 -8.534408 -12.637552 35.980324 -19.374294 17.850874 1.430459 27.278431 -5.483458 -4.491398 -6.540323 -1.941564 -3.448958 -5.209201 -7.657998 0.084283 27.412933 5.454370 4.506927 2.630983 -8.911579 3.354417 
-31.453131 81.191910 -27.278675 -77.788147 87.778915 10.611292 61.436890 -3.323580 1.331233 -19.335346 -0.502034 2.168431 4.995840 -2.092207 -9.012910 22.716679 6.843929 -15.285277 2.971642 -4.490881 1.927035 -52.047157 -112.841011 36.209297 -41.475101 5.251933 4.909511 8.524705 12.647240 -68.118546 -4.704987 0.510038 2.448925 4.974181 92.105057 -15.211292 82.021370 -5.386391 23.823139 -8.534408 -12.637552 35.804550 -20.475740 17.917469 1.353598 26.958263 -5.493221 -4.445251 -6.971118 -1.606914 -3.406978 -5.483332 -7.366513 0.607885 26.849680 5.487251 4.434304 1.189221 -9.775896 3.240674 
-31.483301 81.282112 -27.406584 -77.116257 87.813873 10.832324 61.179276 -3.611278 1.757524 -19.262173 -1.432984 2.312545 2.130588 -3.372156 -9.584361 30.295065 11.144747 -14.944655 2.971642 -4.490881 1.927035 -52.796852 -112.741844 37.678349 -41.506355 5.270142 4.922661 8.524705 12.647240 -68.147835 -4.704987 0.510038 2.448925 -1.805911 91.914955 -22.892021 82.030174 -5.380820 23.824228 -8.534408 -12.637552 35.628761 -20.906374 17.674238 1.031973 26.687721 -5.503251 -4.403518 -8.212172 -0.851647 -3.314881 -5.658085 -7.609457 0.357880 26.358995 5.501942 4.364620 0.856640 -8.821212 3.154441 
-31.469160 81.273315 -27.380499 -75.328041 87.782326 12.839045 61.111034 -3.392692 1.662931 -19.533962 -1.138991 2.230664 2.401733 -5.264018 -9.825802 30.226862 13.413397 -14.875534 2.971642 -4.490881 1.927035 -53.067959 -112.297867 38.216282 -41.638317 5.313694 4.970316 8.524705 12.647240 -67.815811 -4.704987 0.510038 2.448925 -8.402835 91.756874 -29.109314 82.065239 -5.360386 23.857824 -8.534408 -12.637552 35.540871 -21.842346 17.780430 1.650901 26.445585 -5.517233 -4.385492 -8.127924 -1.337535 -3.398585 -5.902014 -7.570503 0.140812 25.986172 5.522665 4.315509 0.279424 -8.493018 3.093921 
-31.474815 81.288712 -27.367302 -71.774849 87.741280 16.487572 60.875687 -2.692667 1.382354 -19.712048 0.253473 1.991483 2.663367 -5.266884 -9.341564 29.923990 9.449894 -14.918236 2.971642 -4.490881 1.927035 -52.724865 -111.579872 35.997410 -41.790649 5.361519 5.018256 8.524705 12.647240 -68.411507 -4.704987 0.510038 2.448925 -8.319712 91.701157 -26.776632 82.123627 -5.320803 23.894125 -8.534408 -12.637552 35.540871 -22.816692 17.788490 1.973727 26.294165 -5.527619 -4.364001 -8.336547 -1.287504 -3.380201 -6.217497 -7.564491 -0.205168 25.573580 5.542052 4.253661 -0.213277 -8.027653 3.021340 
-31.502472 81.340561 -27.393385 -70.699364 87.737610 17.430054 60.839363 -3.247353 1.680535 -19.591272 -0.902531 2.182090 2.745964 -6.926794 -10.273259 29.261316 15.357719 -15.461210 2.971642 -4.490881 1.927035 -50.229305 -111.615616 36.563606 -42.514332 5.608288 5.281669 8.524705 12.647240 -67.972054 -4.704987 0.510038 2.448925 -14.531823 91.662971 -34.819141 82.141968 -5.310816 23.905941 -8.534408 -12.637552 35.033058 -23.489773 17.700102 2.200401 26.124182 -5.527144 -4.358714 -8.895322 -0.926728 -3.352470 -6.444193 -7.615916 -0.423135 25.221893 5.551833 4.214449 -0.768327 -7.573678 2.975116 
-31.505926 81.335526 -27.359129 -73.059082 87.776184 15.175467 61.077927 -3.677694 1.776611 -19.654036 -1.680901 2.313775 5.700562 2.564757 -9.902170 19.334930 2.544092 -18.298878 2.971642 -4.490881 1.927035 -49.160843 -111.521942 40.537033 -43.585644 5.943239 5.673501 8.524705 12.647240 -62.806042 -4.704987 0.510038 2.448925 -21.314093 91.648048 -43.134750 82.168015 -5.295056 23.928705 -8.534408 -12.637552 34.574078 -24.172195 17.630993 2.355451 25.992601 -5.537636 -4.338967 -9.527232 -0.776255 -3.304052 -6.449693 -7.532840 -0.225639 24.775963 5.581575 4.161682 -1.471506 -7.806806 2.906172 
-31.537039 81.346222 -27.361328 -75.125687 87.815376 13.064423 61.103180 -3.863659 1.905006 -19.715059 -2.127331 2.386476 5.615298 0.257164 -9.569123 21.666132 7.103830 -16.460613 2.971642 -4.490881 1.927035 -51.985783 -111.972130 38.793602 -42.228020 5.506299 5.179991 8.524705 12.647240 -68.870499 -4.704987 0.510038 2.448925 -31.269886 91.610435 -53.725403 82.218132 -5.261331 23.963808 -8.534408 -12.637552 34.359238 -24.848572 17.457355 1.972514 25.861027 -5.551089 -4.301259 -10.645213 -0.012756 -3.145955 -6.430014 -7.542401 -0.284495 24.283964 5.590723 4.089588 -1.963559 -7.782271 2.854517 
-31.607122 81.404678 -27.427324 -76.541313 87.860413 11.316998 60.932262 -3.953370 2.169380 -19.630713 -2.775158 2.464551 5.533594 2.532020 -9.767349 20.963240 4.558464 -17.510113 2.971642 -4.490881 1.927035 -53.139332 -111.749405 41.676918 -42.656364 5.648588 5.333295 8.524705 12.647240 -66.800179 -4.704987 0.510038 2.448925 -40.341415 91.575462 -63.038799 82.277496 -5.222901 24.009644 -8.534408 -12.637552 34.466656 -25.337986 17.116552 0.872713 25.682148 -5.547468 -4.274140 -12.311912 1.500017 -2.766822 -6.473394 -7.693724 -0.630022 23.919123 5.613807 4.022779 -2.277025 -7.262183 2.845825 
-31.642319 81.408752 -27.414755 -75.445221 87.863129 12.399381 60.930634 -4.061943 2.264375 -19.671734 -3.124781 2.517049 5.589304 3.736950 -10.032310 20.220545 3.609529 -18.316229 2.971642 -4.490881 1.927035 -58.406048 -112.243446 43.771515 -41.597527 5.296021 4.946157 8.524705 12.647240 -69.983780 -4.704987 0.510038 2.448925 -47.663925 91.527573 -70.479599 82.352707 -5.172424 24.066637 -8.534408 -12.637552 34.710796 -26.063955 16.962606 0.458966 25.428339 -5.571341 -4.227143 -13.152603 1.961637 -2.622988 -6.634775 -7.707886 -0.856039 23.684244 5.633283 3.995725 -2.671577 -7.129615 2.815477 
